<svg width="64" height="32" viewBox="0 0 64 32" fill="none" xmlns="http://www.w3.org/2000/svg">
<g clip-path="url(#clip0_5643_21289)">
<path d="M8.76267 12.7979C6.38909 12.7979 4.64567 11.4326 4.64567 9.43713C4.64567 7.42063 6.4101 6.01329 8.76267 6.01329H15.8204L18.6141 2.3584H8.76267C3.88948 2.3584 0.297607 5.13108 0.297607 9.24808C0.297607 13.3231 3.88948 16.4108 8.76267 16.4108H15.8204L18.6141 12.7979H8.76267Z" fill="white"/>
<path d="M2.86599 18.0293L0.0512695 21.6842H6.64691V32.0817H10.995V21.6842H16.0152L18.8299 18.0293H2.86599Z" fill="white"/>
<path d="M36.3966 29.3511C35.4304 28.3638 34.9053 27.8597 34.4222 27.5026C36.7327 27.0405 38.0981 25.2341 38.0981 23.0495C38.0981 19.0375 34.0651 18.0293 30.8723 18.0293H21.8401L19.0044 21.6842H31.2294C32.7207 21.6842 33.624 22.2303 33.624 23.3226C33.624 24.2888 32.5737 24.898 31.2294 24.898H19.0044V32.0817H23.3525V28.3638H30.0321L33.1619 32.0817H38.9803L36.3966 29.3511Z" fill="white"/>
<path d="M43.7753 18.0293H39.4272V32.0817H43.7753V18.0293Z" fill="white"/>
<path d="M62.9067 23.3016C62.9067 20.1718 60.3651 18.0293 56.017 18.0293H47.1948L44.3171 21.6842H56.4161C57.7604 21.6842 58.5376 22.2933 58.5376 23.2806C58.5376 24.2468 57.7604 24.898 56.4161 24.898H44.3171V32.0817H48.6442V28.4899H55.996C60.3651 28.4899 62.9067 26.4103 62.9067 23.3016Z" fill="white"/>
<path d="M36.3966 13.6802C35.4304 12.6929 34.9053 12.1888 34.4222 11.8317C36.7327 11.3696 38.0981 9.56316 38.0981 7.37862C38.0981 3.36665 34.0651 2.3584 30.8723 2.3584H21.8401L19.0044 6.01329H31.2294C32.7207 6.01329 33.624 6.55942 33.624 7.65169C33.624 8.61793 32.5737 9.22707 31.2294 9.22707H19.0044V16.4108H23.3525V12.6929H30.0321L33.1619 16.4108H38.9803L36.3966 13.6802Z" fill="white"/>
<path d="M50.3315 7.96677C49.3233 7.96677 48.8402 7.6937 48.8402 6.97953C48.8402 6.26535 49.3233 6.01329 50.3315 6.01329H60.0779L62.8716 2.3584H50.6676C46.4032 2.3584 44.6391 4.08082 44.6391 6.72747C44.6391 9.14306 46.2985 10.7604 49.9114 10.7604H57.5573C58.5865 10.7604 59.0487 11.0545 59.0487 11.7687C59.0487 12.5039 58.5865 12.7979 57.5573 12.7979H46.9287L44.135 16.4108H57.2212C61.5062 16.4108 63.2497 14.6884 63.2497 11.8107C63.2497 9.24808 61.4012 7.96677 57.9774 7.96677H50.3315Z" fill="white"/>
<path d="M38.5135 18.3014C38.3149 18.3014 38.1072 18.2653 37.9178 18.1842C37.4935 18.0037 37.1685 17.6516 37.0241 17.2095L36.627 16.0181C36.4465 15.4766 36.6089 14.7995 37.0061 14.3935L39.0551 12.3356C39.082 12.3084 39.1181 12.2093 39.1181 12.164V9.93481L35.0024 11.7127C34.452 11.9474 33.8924 11.9205 33.468 11.6405C33.044 11.3609 32.7913 10.8554 32.7913 10.2686V9.10442C32.7913 8.2199 33.4231 7.27221 34.2262 6.95631L39.1092 4.84431V2.28103C39.1092 1.18893 39.8762 -0.0656344 40.851 -0.57107C41.3203 -0.805737 41.8619 -0.805737 42.3223 -0.57107C43.306 -0.0656344 44.0733 1.1799 44.0733 2.27201V4.83529L48.9833 6.94729C49.7864 7.29026 50.4001 8.21088 50.4001 9.10442V10.2686C50.4001 10.8643 50.1566 11.3609 49.7234 11.6405C49.2901 11.9205 48.7394 11.9474 48.189 11.7219L44.0733 9.94367V12.1732C44.0733 12.2093 44.1094 12.2995 44.1363 12.3264L46.1942 14.3935C46.5913 14.7906 46.7538 15.4854 46.5732 16.0181L46.1761 17.2095C46.0228 17.6516 45.6979 18.0037 45.2647 18.1751C44.8403 18.3467 44.371 18.3287 43.965 18.1301C43.9197 18.1028 43.8747 18.0759 43.8295 18.0398L41.7266 16.2708C41.6544 16.2075 41.51 16.2167 41.4467 16.2708L39.3439 18.0398C39.3078 18.0759 39.2625 18.1028 39.2175 18.1209C39.0009 18.2473 38.757 18.3014 38.5135 18.3014ZM39.398 8.45457C39.6055 8.45457 39.804 8.50872 39.9757 8.62606C40.2914 8.83365 40.4719 9.18565 40.4719 9.60069V12.1732C40.4719 12.5611 40.2825 13.0216 40.0118 13.2923L37.9628 15.3502C37.9267 15.3952 37.8906 15.5307 37.9086 15.5849L38.3058 16.7851C38.333 16.8754 38.396 16.9115 38.4321 16.9295C38.4594 16.9387 38.5043 16.9568 38.5585 16.9387L40.5802 15.2327C41.149 14.7453 42.0424 14.7453 42.6112 15.2327L44.6237 16.9295C44.6871 16.9387 44.732 16.9295 44.7593 16.9207C44.7954 16.9026 44.8676 16.8665 44.8945 16.7762L45.2916 15.5849C45.3097 15.5215 45.2736 15.3863 45.2375 15.3502L43.1888 13.2923C42.918 13.0396 42.7195 12.5703 42.7195 12.1732V9.60069C42.7195 9.19467 42.8908 8.84267 43.1977 8.63508C43.5045 8.42749 43.9017 8.40042 44.2807 8.56288L48.7214 10.4763C48.8569 10.5305 48.9472 10.5305 48.9741 10.5124C49.0013 10.4944 49.0374 10.413 49.0374 10.2686V9.10442C49.0374 8.76144 48.7486 8.31919 48.4417 8.19283L43.4054 6.01765C43.0083 5.84616 42.7283 5.41293 42.7283 4.9797V2.27201C42.7283 1.67631 42.259 0.909134 41.7175 0.638365C41.6452 0.602262 41.555 0.602262 41.4739 0.638365C40.9504 0.909134 40.4719 1.69436 40.4719 2.28103V4.98872C40.4719 5.41293 40.1923 5.85518 39.7952 6.02667L34.7589 8.20185C34.4428 8.32821 34.154 8.77047 34.154 9.10442V10.2686C34.154 10.413 34.1901 10.4944 34.2173 10.5124C34.2442 10.5305 34.3345 10.5305 34.47 10.4763L38.9015 8.56288C39.0639 8.49067 39.2356 8.45457 39.398 8.45457Z" fill="#00CCFF"/>
<path d="M48.6452 7.58067L44.5581 5.82149L43.648 5.43641C43.5078 5.3664 43.3854 5.18261 43.3854 5.02507V2.34692C43.3854 1.50671 42.7638 0.508968 42.0112 0.123852C41.7486 -0.00742989 41.4336 -0.00742989 41.171 0.123852C40.427 0.508968 39.8057 1.51544 39.8057 2.35565V5.0338C39.8057 5.19134 39.6832 5.37513 39.5431 5.44517L34.5544 7.58944C34.003 7.81698 33.5566 8.50841 33.5566 9.10354V10.2588C33.5566 11.0028 34.1169 11.3704 34.8081 11.0727L39.1929 9.18231C39.5342 9.03354 39.8145 9.21733 39.8145 9.59352V10.565V12.1404C39.8145 12.3419 39.7006 12.6307 39.5605 12.7705L37.5302 14.81C37.3202 15.0201 37.2237 15.4313 37.3202 15.729L37.714 16.9191C37.8716 17.4357 38.4577 17.6805 38.9392 17.4357L41.0223 15.685C41.3374 15.4139 41.8537 15.4139 42.1687 15.685L44.2519 17.4357C44.733 17.672 45.3195 17.4357 45.4948 16.9191L45.8883 15.729C45.9848 15.4402 45.8883 15.0201 45.6782 14.81L43.648 12.7705C43.4993 12.6307 43.3854 12.3419 43.3854 12.1404V9.59352C43.3854 9.21733 43.6565 9.0423 44.0067 9.18231L48.3915 11.0727C49.083 11.3704 49.6433 11.0028 49.6433 10.2588V9.10354C49.6433 8.50841 49.1966 7.81698 48.6452 7.58067Z" fill="white"/>
</g>
<defs>
<clipPath id="clip0_5643_21289">
<rect width="63.2615" height="32" fill="white"/>
</clipPath>
</defs>
</svg>
